<svg width="116" height="34" viewBox="0 0 116 34" fill="none" xmlns="http://www.w3.org/2000/svg">
<rect width="116" height="34" rx="10" fill="#2D95F0"/>
<path d="M33.5547 14.4929C33.5017 14.0223 33.2829 13.6577 32.8984 13.3991C32.514 13.1373 32.0301 13.0064 31.4467 13.0064C31.0291 13.0064 30.6679 13.0727 30.3629 13.2053C30.058 13.3345 29.821 13.5135 29.652 13.7422C29.4863 13.9676 29.4034 14.2244 29.4034 14.5128C29.4034 14.7547 29.4598 14.9635 29.5724 15.1392C29.6884 15.3149 29.8393 15.4624 30.0249 15.5817C30.2138 15.6977 30.416 15.7955 30.6314 15.875C30.8468 15.9512 31.054 16.0142 31.2528 16.0639L32.2472 16.3224C32.572 16.402 32.9051 16.5097 33.2464 16.6456C33.5878 16.7815 33.9044 16.9605 34.196 17.1825C34.4877 17.4046 34.723 17.6797 34.902 18.0078C35.0843 18.3359 35.1754 18.7287 35.1754 19.1861C35.1754 19.7628 35.0263 20.2749 34.728 20.7223C34.433 21.1697 34.0038 21.5227 33.4403 21.7812C32.8802 22.0398 32.2024 22.169 31.407 22.169C30.6446 22.169 29.9851 22.0481 29.4283 21.8061C28.8714 21.5642 28.4356 21.2211 28.1207 20.777C27.8059 20.3295 27.6319 19.7992 27.5987 19.1861H29.1399C29.1697 19.554 29.2891 19.8606 29.4979 20.1058C29.71 20.3478 29.9801 20.5284 30.3082 20.6477C30.6397 20.7637 31.0026 20.8217 31.397 20.8217C31.8312 20.8217 32.2173 20.7538 32.5554 20.6179C32.8968 20.4787 33.1652 20.2865 33.3608 20.0412C33.5563 19.7926 33.6541 19.5026 33.6541 19.1712C33.6541 18.8696 33.5679 18.6226 33.3956 18.4304C33.2266 18.2382 32.9962 18.0791 32.7045 17.9531C32.4162 17.8272 32.0897 17.7161 31.7251 17.62L30.522 17.2919C29.7067 17.0698 29.0604 16.7434 28.5831 16.3125C28.1091 15.8816 27.8722 15.3116 27.8722 14.6023C27.8722 14.0156 28.0313 13.5036 28.3494 13.0661C28.6676 12.6286 29.0985 12.2888 29.642 12.0469C30.1856 11.8016 30.7988 11.679 31.4815 11.679C32.1709 11.679 32.7791 11.8 33.3061 12.0419C33.8364 12.2839 34.254 12.617 34.5589 13.0412C34.8639 13.4621 35.023 13.946 35.0362 14.4929H33.5547ZM36.8919 22V14.3636H38.3784V22H36.8919ZM37.6426 13.1854C37.3841 13.1854 37.162 13.0992 36.9764 12.9268C36.7941 12.7512 36.7029 12.5424 36.7029 12.3004C36.7029 12.0552 36.7941 11.8464 36.9764 11.674C37.162 11.4983 37.3841 11.4105 37.6426 11.4105C37.9011 11.4105 38.1215 11.4983 38.3038 11.674C38.4894 11.8464 38.5822 12.0552 38.5822 12.3004C38.5822 12.5424 38.4894 12.7512 38.3038 12.9268C38.1215 13.0992 37.9011 13.1854 37.6426 13.1854ZM43.5799 25.0227C42.9734 25.0227 42.4513 24.9432 42.0138 24.7841C41.5797 24.625 41.225 24.4145 40.9499 24.1527C40.6748 23.8909 40.4693 23.6042 40.3335 23.2926L41.6112 22.7656C41.7006 22.9115 41.82 23.0656 41.9691 23.228C42.1216 23.3937 42.3271 23.5346 42.5856 23.6506C42.8474 23.7666 43.1838 23.8246 43.5948 23.8246C44.1583 23.8246 44.6239 23.687 44.9918 23.4119C45.3597 23.1402 45.5437 22.706 45.5437 22.1094V20.608H45.4492C45.3597 20.7704 45.2305 20.951 45.0614 21.1499C44.8957 21.3487 44.667 21.5211 44.3754 21.6669C44.0837 21.8127 43.7042 21.8857 43.2369 21.8857C42.6336 21.8857 42.0901 21.7448 41.6062 21.4631C41.1256 21.178 40.7444 20.7588 40.4627 20.2053C40.1843 19.6484 40.0451 18.964 40.0451 18.152C40.0451 17.34 40.1826 16.6439 40.4577 16.0639C40.7362 15.4839 41.1173 15.0398 41.6012 14.7315C42.0851 14.42 42.6336 14.2642 43.2468 14.2642C43.7208 14.2642 44.1036 14.3438 44.3952 14.5028C44.6869 14.6586 44.9139 14.8409 45.0763 15.0497C45.2421 15.2585 45.3697 15.4425 45.4592 15.6016H45.5685V14.3636H47.0252V22.169C47.0252 22.8253 46.8728 23.3639 46.5678 23.7848C46.2629 24.2057 45.8503 24.5173 45.3299 24.7195C44.8129 24.9216 44.2295 25.0227 43.5799 25.0227ZM43.565 20.6527C43.9925 20.6527 44.3538 20.5533 44.6488 20.3544C44.9471 20.1522 45.1725 19.8639 45.3249 19.4893C45.4807 19.1115 45.5586 18.6591 45.5586 18.1321C45.5586 17.6184 45.4824 17.166 45.3299 16.7749C45.1774 16.3838 44.9537 16.0788 44.6587 15.8601C44.3638 15.638 43.9992 15.527 43.565 15.527C43.1175 15.527 42.7447 15.643 42.4464 15.875C42.1481 16.1037 41.9227 16.4152 41.7702 16.8097C41.6211 17.2041 41.5465 17.6449 41.5465 18.1321C41.5465 18.6326 41.6228 19.0717 41.7752 19.4496C41.9277 19.8274 42.1531 20.1224 42.4513 20.3345C42.753 20.5466 43.1242 20.6527 43.565 20.6527ZM50.5053 17.4659V22H49.0188V14.3636H50.4457V15.6065H50.5401C50.7158 15.2022 50.9909 14.8774 51.3654 14.6321C51.7433 14.3868 52.2189 14.2642 52.7923 14.2642C53.3126 14.2642 53.7683 14.3736 54.1594 14.5923C54.5505 14.8078 54.8538 15.1293 55.0692 15.5568C55.2847 15.9844 55.3924 16.513 55.3924 17.1428V22H53.9059V17.3217C53.9059 16.7682 53.7617 16.3357 53.4734 16.0241C53.185 15.7093 52.7889 15.5518 52.2852 15.5518C51.9405 15.5518 51.6339 15.6264 51.3654 15.7756C51.1003 15.9247 50.8898 16.1435 50.734 16.4318C50.5816 16.7169 50.5053 17.0616 50.5053 17.4659ZM67.758 11.8182H69.2992V18.5149C69.2992 19.2275 69.1318 19.8589 68.7971 20.4091C68.4623 20.956 67.9917 21.3868 67.3851 21.7017C66.7786 22.0133 66.0676 22.169 65.2523 22.169C64.4403 22.169 63.731 22.0133 63.1245 21.7017C62.5179 21.3868 62.0473 20.956 61.7125 20.4091C61.3778 19.8589 61.2104 19.2275 61.2104 18.5149V11.8182H62.7466V18.3906C62.7466 18.8513 62.8477 19.2607 63.0499 19.6186C63.2554 19.9766 63.5454 20.2583 63.9199 20.4638C64.2944 20.666 64.7386 20.767 65.2523 20.767C65.7694 20.767 66.2151 20.666 66.5897 20.4638C66.9675 20.2583 67.2559 19.9766 67.4547 19.6186C67.6569 19.2607 67.758 18.8513 67.758 18.3906V11.8182ZM71.4134 24.8636V14.3636H72.8651V15.6016H72.9893C73.0755 15.4425 73.1998 15.2585 73.3622 15.0497C73.5246 14.8409 73.75 14.6586 74.0384 14.5028C74.3267 14.3438 74.7079 14.2642 75.1818 14.2642C75.7983 14.2642 76.3485 14.42 76.8324 14.7315C77.3163 15.0431 77.6958 15.4922 77.9709 16.0788C78.2493 16.6655 78.3885 17.3714 78.3885 18.1967C78.3885 19.022 78.2509 19.7296 77.9759 20.3196C77.7008 20.9062 77.3229 21.3587 76.8423 21.6768C76.3617 21.9917 75.8132 22.1491 75.1967 22.1491C74.7327 22.1491 74.3532 22.0713 74.0582 21.9155C73.7666 21.7597 73.5379 21.5774 73.3722 21.3686C73.2064 21.1598 73.0788 20.9742 72.9893 20.8118H72.8999V24.8636H71.4134ZM72.87 18.1818C72.87 18.7187 72.9479 19.1894 73.1037 19.5938C73.2595 19.9981 73.4848 20.3146 73.7798 20.5433C74.0748 20.7687 74.4361 20.8814 74.8636 20.8814C75.3078 20.8814 75.679 20.7637 75.9773 20.5284C76.2756 20.2898 76.5009 19.9666 76.6534 19.5589C76.8092 19.1513 76.8871 18.6922 76.8871 18.1818C76.8871 17.678 76.8108 17.2256 76.6584 16.8246C76.5092 16.4235 76.2839 16.107 75.9822 15.875C75.6839 15.643 75.3111 15.527 74.8636 15.527C74.4328 15.527 74.0682 15.638 73.7699 15.8601C73.4749 16.0821 73.2512 16.392 73.0987 16.7898C72.9463 17.1875 72.87 17.6515 72.87 18.1818ZM90.1028 22.1839L89.2079 21.299L92.3152 18.1918H84.5098V16.8991H92.3152L89.2079 13.7969L90.1028 12.907L94.7413 17.5455L90.1028 22.1839Z" fill="white"/>
</svg>
